<svg width="96" height="82" viewBox="0 0 96 82" fill="none" xmlns="http://www.w3.org/2000/svg">
<path d="M26.9256 43.7061C30.8707 45.075 33.9282 47.3238 36.098 50.4527C38.2679 53.5815 39.3528 57.3948 39.3528 61.8925C39.3528 67.7591 37.4788 72.5502 33.731 76.2657C29.9831 79.9812 25.3475 81.8389 19.8243 81.8389C14.1039 81.8389 9.36971 79.9812 5.62183 76.2657C1.87394 72.3546 0 67.5636 0 61.8925C0 59.1548 0.295885 56.417 0.887656 53.6793C1.67668 50.746 3.15611 46.5416 5.32594 41.0661L19.2326 0H37.8734L26.9256 43.7061ZM82.848 43.7061C86.7931 45.075 89.8506 47.3238 92.0204 50.4527C94.1903 53.5815 95.2752 57.3948 95.2752 61.8925C95.2752 67.7591 93.4012 72.5502 89.6533 76.2657C85.9054 79.9812 81.2699 81.8389 75.7467 81.8389C70.0263 81.8389 65.2921 79.9812 61.5442 76.2657C57.7963 72.3546 55.9224 67.5636 55.9224 61.8925C55.9224 59.1548 56.2183 56.417 56.81 53.6793C57.5991 50.746 59.0785 46.5416 61.2483 41.0661L75.1549 0H93.7957L82.848 43.7061Z" fill="white" fill-opacity="0.3"/>
</svg>
